<?xml version="1.0" encoding="UTF-8"?> <svg xmlns="http://www.w3.org/2000/svg" width="31" height="31" viewBox="0 0 31 31" fill="none"><path d="M0.292893 29.2929C-0.0976311 29.6834 -0.0976311 30.3166 0.292893 30.7071C0.683418 31.0976 1.31658 31.0976 1.70711 30.7071L0.292893 29.2929ZM31 1C31 0.447717 30.5523 1.5998e-06 30 1.5998e-06L21 1.5998e-06C20.4477 1.5998e-06 20 0.447717 20 1C20 1.55229 20.4477 2 21 2L29 2L29 10C29 10.5523 29.4477 11 30 11C30.5523 11 31 10.5523 31 10L31 1ZM1.70711 30.7071L30.7071 1.70711L29.2929 0.292895L0.292893 29.2929L1.70711 30.7071Z" fill="white"></path></svg> 